<svg width="150" height="42" viewBox="0 0 150 42" fill="none" xmlns="http://www.w3.org/2000/svg">
<g clip-path="url(#clip0_1499_783)">
<path fill-rule="evenodd" clip-rule="evenodd" d="M37.5804 23.4901C36.9676 28.6862 33.9342 32.4372 30.4565 33.6363C24.7727 35.5887 16.1628 31.9453 12.5779 23.0442C9.16147 14.5583 9.43724 4.41207 15.121 1.89089C16.2547 1.38358 17.6029 1.13761 19.0736 1.12223C24.451 1.10686 31.437 4.50431 34.4704 12.0525C34.8381 12.9595 35.1445 13.8819 35.3896 14.8043V0H18.4149C8.22694 0 0 9.30071 0 20.0926C0 30.8845 8.2729 40.7694 18.9817 41C28.8632 41.1999 37.1821 33.5594 38.5916 23.4901H37.5804ZM112.251 34.4357L99.1369 11.9295L99.5046 11.4991C103.409 6.78491 108.833 2.5584 114.323 0.154635C117.306 0.710785 119.666 1.65551 119.666 7.80952V32.1759C119.666 37.0722 118.172 38.6709 116.059 39.3999C114.822 38.7034 113.867 37.2152 112.251 34.4357ZM114.151 39.97H102.753L92.0284 20.4154L90.3125 22.4447V32.1605C90.3125 38.4327 92.7637 39.2936 95.8278 39.847V39.97H79.3126H74.3795H57.129V39.847C60.2543 39.4166 63.7473 36.5879 61.2961 30.8691L58.1248 23.3056H46.3589C43.923 30.6385 41.9467 39.601 49.1012 39.847V39.97H35.1292V39.847C37.8868 37.8178 40.2155 34.8661 43.4021 26.8106L51.1848 7.13311C48.8561 2.64417 46.5274 1.10686 42.9119 0.122985V0H59.1206L72.4492 30.823V30.8076C74.433 35.3907 75.8958 37.4644 77.5697 38.7606C78.9801 37.8042 79.8948 35.992 79.8948 32.1605V7.80952C79.8948 1.53731 77.4436 0.676415 74.3795 0.122985V0H95.8278V0.122985C92.7637 0.676415 90.3125 1.53731 90.3125 7.80952V21.0919L98.4016 11.4376C102.691 6.33371 100.669 1.66029 97.9726 0.122985V0H114.151H114.396H150V14.1432H149.877C147.487 5.65729 143.443 0.922385 134.557 0.922385H130.084V18.3247H131.064C136.825 18.3247 140.256 13.5283 141.176 8.48594H141.298V29.0859H141.176C140.256 24.0435 136.825 19.2471 131.064 19.2471H130.084V31.976C130.084 37.7563 131.922 39.0476 135.599 39.0476V39.063C143.872 39.063 148.162 30.8845 149.877 22.1526H150V39.9854H114.151V39.97ZM46.9104 21.7222C46.8606 21.872 46.8109 22.0219 46.7572 22.168H57.6346L57.0984 20.892C57.0984 20.892 52.058 8.80877 51.8742 8.37833L47.0636 21.2763C47.01 21.4224 46.9602 21.5723 46.9104 21.7222Z" fill="black"/>
</g>
<defs>
<clipPath id="clip0_1499_783">
<rect width="150" height="41" fill="white"/>
</clipPath>
</defs>
</svg>
